<svg width="11" height="11" viewBox="0 0 11 11" fill="none" xmlns="http://www.w3.org/2000/svg">
<path d="M10.5826 0H0.448122C0.206826 0 0 0.20625 0 0.446875V10.5188C0 10.7937 0.206826 11 0.448122 11H5.86006V6.875H4.48122V5.15625H5.86006V3.78125C5.86006 2.37188 6.7563 1.65 8.03173 1.65C8.6522 1.65 9.16927 1.71875 9.30715 1.71875V3.19688H8.41091C7.72149 3.19688 7.54913 3.54062 7.54913 4.02187V5.15625H9.27268L8.92797 6.875H7.54913L7.58361 11H10.5481C10.7894 11 10.9962 10.7937 10.9962 10.5531V0.446875C11.0307 0.20625 10.8239 0 10.5826 0Z" fill="#111111"/>
</svg>
