<svg width="11" height="11" viewBox="0 0 11 11" fill="none" xmlns="http://www.w3.org/2000/svg">
<path d="M9.69375 0H1.30625C0.584375 0 0 0.584375 0 1.30625V9.69375C0 10.4156 0.584375 11 1.30625 11H9.69375C10.4156 11 11 10.4156 11 9.69375V1.30625C11 0.584375 10.4156 0 9.69375 0ZM8.25 1.375H9.28125C9.4875 1.375 9.625 1.5125 9.625 1.71875V2.75C9.625 2.95625 9.4875 3.09375 9.28125 3.09375H8.25C8.04375 3.09375 7.90625 2.95625 7.90625 2.75V1.71875C7.90625 1.5125 8.04375 1.375 8.25 1.375ZM5.5 3.40312C6.66875 3.40312 7.63125 4.33125 7.63125 5.5C7.63125 6.66875 6.66875 7.59688 5.5 7.59688C4.33125 7.59688 3.36875 6.66875 3.36875 5.5C3.40313 4.33125 4.33125 3.40312 5.5 3.40312ZM9.625 9.96875H1.375C1.16875 9.96875 1.03125 9.83125 1.03125 9.625V4.46875H2.40625C2.23438 4.74375 2.16563 5.19063 2.16563 5.5C2.16563 7.35625 3.67812 8.83438 5.5 8.83438C7.35625 8.83438 8.83438 7.32188 8.83438 5.5C8.83438 5.19063 8.8 4.70937 8.55937 4.46875H9.93437V9.625C9.96875 9.83125 9.83125 9.96875 9.625 9.96875Z" fill="#111111"/>
</svg>
