<svg width="124" height="18" viewBox="0 0 124 18" fill="none" xmlns="http://www.w3.org/2000/svg">
<path d="M9.168 17.288C14.016 17.288 17.544 13.832 17.544 9.008C17.544 4.184 14.016 0.727999 9.168 0.727999C4.344 0.727999 0.816 4.184 0.816 9.008C0.816 13.832 4.344 17.288 9.168 17.288ZM9.168 14.264C6.216 14.264 4.32 11.984 4.32 9.008C4.32 6.008 6.216 3.752 9.168 3.752C12.12 3.752 14.04 6.008 14.04 9.008C14.04 11.984 12.12 14.264 9.168 14.264ZM31.1916 17L26.4636 10.664L31.0476 5.408H27.3036L22.9116 10.568V0.991999H19.8636V17H22.9116V14.024L24.3036 12.536L27.3756 17H31.1916ZM34.2193 4.16C35.2273 4.16 36.0433 3.344 36.0433 2.336C36.0433 1.328 35.2273 0.535999 34.2193 0.535999C33.2353 0.535999 32.3953 1.328 32.3953 2.336C32.3953 3.344 33.2353 4.16 34.2193 4.16ZM35.7553 17V5.408H32.7073V17H35.7553ZM50.1056 17L45.3776 10.664L49.9616 5.408H46.2176L41.8256 10.568V0.991999H38.7776V17H41.8256V14.024L43.2176 12.536L46.2896 17H50.1056ZM56.9288 17.288C58.7288 17.288 60.5528 16.736 61.7048 15.68L60.3608 13.712C59.6168 14.432 58.2488 14.864 57.2648 14.864C55.2968 14.864 54.1208 13.64 53.9288 12.176H62.5448V11.504C62.5448 7.712 60.1928 5.12 56.7368 5.12C53.2088 5.12 50.7368 7.832 50.7368 11.192C50.7368 14.912 53.4008 17.288 56.9288 17.288ZM59.5928 10.112H53.8808C54.0248 8.96 54.8408 7.544 56.7368 7.544C58.7528 7.544 59.5208 9.008 59.5928 10.112Z" fill="#E0433E"/>
<path d="M72.5116 17V11.48H78.9716V8.98H72.5116V6.16H79.1116V3.66H69.6716V17H72.5116ZM85.5173 17.24C88.7173 17.24 90.6373 14.92 90.6373 12.16C90.6373 9.42 88.7173 7.1 85.5173 7.1C82.3373 7.1 80.4173 9.42 80.4173 12.16C80.4173 14.92 82.3373 17.24 85.5173 17.24ZM85.5173 14.98C83.9373 14.98 83.0573 13.68 83.0573 12.16C83.0573 10.66 83.9373 9.36 85.5173 9.36C87.0973 9.36 87.9973 10.66 87.9973 12.16C87.9973 13.68 87.0973 14.98 85.5173 14.98ZM97.0017 17.24C100.202 17.24 102.122 14.92 102.122 12.16C102.122 9.42 100.202 7.1 97.0017 7.1C93.8217 7.1 91.9017 9.42 91.9017 12.16C91.9017 14.92 93.8217 17.24 97.0017 17.24ZM97.0017 14.98C95.4217 14.98 94.5417 13.68 94.5417 12.16C94.5417 10.66 95.4217 9.36 97.0017 9.36C98.5817 9.36 99.4817 10.66 99.4817 12.16C99.4817 13.68 98.5817 14.98 97.0017 14.98ZM113.206 17V3.66H110.646V8.58C109.886 7.6 108.806 7.1 107.666 7.1C105.206 7.1 103.386 9.02 103.386 12.18C103.386 15.4 105.226 17.24 107.666 17.24C108.826 17.24 109.886 16.72 110.646 15.76V17H113.206ZM108.446 14.98C107.006 14.98 106.006 13.84 106.006 12.18C106.006 10.5 107.006 9.36 108.446 9.36C109.306 9.36 110.226 9.82 110.646 10.46V13.88C110.226 14.52 109.306 14.98 108.446 14.98ZM119.205 17.24C121.885 17.24 123.385 15.9 123.385 14.14C123.385 10.24 117.665 11.44 117.665 10C117.665 9.46 118.265 9.04 119.185 9.04C120.365 9.04 121.465 9.54 122.045 10.16L123.065 8.42C122.105 7.66 120.805 7.1 119.165 7.1C116.625 7.1 115.205 8.52 115.205 10.14C115.205 13.94 120.945 12.64 120.945 14.24C120.945 14.84 120.425 15.28 119.325 15.28C118.125 15.28 116.685 14.62 115.985 13.96L114.885 15.74C115.905 16.68 117.525 17.24 119.205 17.24Z" fill="black"/>
</svg>
