<svg width="15" height="11" viewBox="0 0 15 11" fill="none" xmlns="http://www.w3.org/2000/svg">
<path d="M14.6667 1.31154C14.1184 1.52308 13.5701 1.69231 12.9304 1.73462C13.5701 1.39615 14.027 0.846154 14.2555 0.211538C13.6615 0.55 13.0218 0.761538 12.3364 0.888462C11.7882 0.338462 11.0114 0 10.189 0C8.54413 0 7.17342 1.22692 7.17342 2.79231C7.17342 3.00385 7.21911 3.21538 7.2648 3.42692C4.75182 3.3 2.55867 2.2 1.05088 0.507692C0.776739 0.930769 0.639668 1.39615 0.639668 1.90385C0.639668 2.87692 1.18795 3.72308 1.96469 4.23077C1.4621 4.23077 1.00519 4.10385 0.593977 3.89231V3.93462C0.593977 5.28846 1.64486 6.38846 3.01558 6.64231C2.74143 6.68462 2.51298 6.72692 2.23884 6.72692C2.05608 6.72692 1.87331 6.72692 1.69055 6.68462C2.05607 7.78462 3.19834 8.58846 4.47767 8.63077C3.47248 9.39231 2.14746 9.81538 0.731049 9.81538C0.502596 9.81538 0.228453 9.81538 0 9.77308C1.37072 10.5346 2.96989 11 4.66044 11C10.189 11 13.2046 6.76923 13.2046 3.08846V2.75C13.7529 2.32692 14.2555 1.86154 14.6667 1.31154Z" fill="#111111"/>
</svg>
