<svg width="11" height="11" viewBox="0 0 11 11" fill="none" xmlns="http://www.w3.org/2000/svg">
<path d="M0 11L0.790625 8.18125C0.309375 7.35625 0.06875 6.42812 0.06875 5.46562C0.034375 2.44062 2.475 0 5.5 0C6.94375 0 8.31875 0.584375 9.35 1.61562C10.3812 2.64687 10.9312 4.02187 10.9312 5.46562C10.9312 8.45625 8.49063 10.9312 5.46562 10.9312C4.5375 10.9312 3.64375 10.6906 2.85312 10.2781L0 11ZM3.025 9.24687L3.19687 9.35C3.88437 9.7625 4.675 9.96875 5.5 9.96875C8.00937 9.96875 10.0375 7.94063 10.0375 5.43125C10.0375 4.22813 9.55625 3.09375 8.69687 2.23438C7.8375 1.375 6.70312 0.89375 5.5 0.89375C2.99062 0.928125 0.9625 2.95625 0.9625 5.46562C0.9625 6.325 1.20313 7.15 1.65 7.87187L1.75312 8.04375L1.30625 9.72812L3.025 9.24687Z" fill="#111111"/>
<path fill-rule="evenodd" clip-rule="evenodd" d="M4.125 3.1625C4.02187 2.8875 3.91875 2.92188 3.81562 2.92188H3.54062C3.4375 2.92188 3.3 2.95625 3.1625 3.09375C3.05937 3.23125 2.71562 3.575 2.71562 4.22813C2.71562 4.91563 3.19687 5.53438 3.26562 5.6375C3.33437 5.74063 4.22812 7.11563 5.60312 7.7C5.9125 7.8375 6.1875 7.94063 6.39375 7.975C6.70312 8.07813 7.0125 8.07813 7.25312 8.04375C7.52812 8.00938 8.04375 7.7 8.18125 7.39063C8.28437 7.08125 8.28437 6.80625 8.25 6.7375C8.21562 6.66875 8.1125 6.63438 7.975 6.56563C7.8375 6.53125 7.18437 6.1875 7.04687 6.15313C6.90937 6.11875 6.84062 6.08438 6.7375 6.22188C6.63437 6.35938 6.39375 6.66875 6.29062 6.77188C6.22187 6.875 6.11875 6.875 5.98125 6.80625C5.84375 6.7375 5.39687 6.6 4.88125 6.11875C4.46875 5.74063 4.19375 5.32813 4.125 5.19063C4.05625 5.05313 4.125 4.98438 4.19375 4.91563C4.2625 4.84688 4.33125 4.74375 4.4 4.675C4.46875 4.60625 4.50312 4.5375 4.5375 4.43438C4.57187 4.33125 4.57187 4.2625 4.5375 4.19375C4.50312 4.125 4.22812 3.4375 4.125 3.1625Z" fill="#111111"/>
</svg>
